
<global>
amp_veltrack=0
</global>

<group>
ampeg_release=0.25
group_label=Sustain_0-63
lpc_hicc1=63
lpc_locc1=0

<region>
hikey=A#5
hivel=127
lokey=A5
lovel=0
lpc=qw6EQTmx5cHmOr1Bn7tdwUS0M0HJ6gHBZa2SQBdtHcCZQptARSzDwEp0ykC+sKvAsuuTQHTUJsDMDe4/AFhxvvyWaj63RpA+8mrHP/AuR8DYnHRAqY00wBH0hEDYXYTA
lpc_rms=-30.76
pitch_keycenter=A#5
sample=Piccolo_fall_PP_A#4.opus
</region>

<region>
hikey=A#6
hivel=127
lokey=A6
lovel=0
lpc=n4d5QWFzycETKJRBP0sQwV3fAkGedgfAVGQKQN9qjsCyy6dAIioPvvVyvj9WM1VAbpIEwQey2z/TfAhBowiowD3T+D8PhIm+q73kv21ewkCCFovAX/0ZQDM3JsCuOwdA
lpc_rms=-28.54
pitch_keycenter=A#6
sample=Piccolo_fall_PP_A#5.opus
</region>

<region>
hikey=C6
hivel=127
lokey=B5
lovel=0
lpc=+qQhQTKog8FNTFBBrQ0mwROFHEH5ofnAwD3lQNdrrcDaNnlAPCQMwFyUHEDLnre/HPiuP4L9y72BTDa/UKvWP6zT2L63ndI+jnY5PAeflj8ZwpS/4P6bP4QnrsDc3J1A
lpc_rms=-38.38
pitch_keycenter=C6
sample=Piccolo_fall_PP_C5.opus
</region>

<region>
hikey=C7
hivel=127
lokey=B6
lovel=0
lpc=4X2eQeL39MHWArFBokouwZL7+UCLgli/xtxSQFm+m8AIFeZAfGV4wIlUKkEh6YXBC7YfQTIhsEDuEf/AHM4QQa75uMDbuWdAKtfDPry7f0AHxIfA4qyXQEI96cAw7fJA
lpc_rms=-26.75
pitch_keycenter=C7
sample=Piccolo_fall_PP_C6.opus
</region>

<region>
hikey=D6
hivel=127
lokey=C#6
lovel=0
lpc=TGfAQdU+F8IJ5cpBBUiKwfnoXkHi7hPBqv84QTSAK8G+wSNBnvHRwIJy2UCnv67An5eIQPPNeMAhjfZABbjIwDnZz0A5LmHAPfyuQN0g/sCOhi/AYtRnQN320EA8UgzA
lpc_rms=-30.34
pitch_keycenter=D6
sample=Piccolo_fall_PP_D5.opus
</region>

<region>
hikey=D7
hivel=127
lokey=C#7
lovel=0
lpc=CTyKQW969cH3bcFBs9I7wYHTEkFCOj2/QaVwwMavfkDTNUK/2+18QMrjJ8G0dz9BBZMBwBirO75NgKC/0NIfv0bpnkAD9dy/DjP7P9Ru0r8bgprAfllFQWgqAMGJ8B1A
lpc_rms=-24.20
pitch_keycenter=D7
sample=Piccolo_fall_PP_D6.opus
</region>

<region>
hivel=127
key=E5
lovel=0
lpc=+8CQQQZoCsKnTRxCJHgYwg3m8EFy1JrBwEddQQx9KsGF2fVAF/GWwJ2KRED8tAA+pTIGQBW9ur6fM3y8cAmDv0g2RD/r7OO/0UgyQIXnPMCKSxtAjFFkv6qD0j8FtJ8/
lpc_rms=-38.66
sample=Piccolo_fall_PP_E4.opus
</region>

<region>
hikey=E6
hivel=127
lokey=D#6
lovel=0
lpc=SKgqQWB4k8F2925BINsbwS/eBUFgcJHAI0YBQH+Dmb85XKk/5dcPQHYvDcAJh48/68Y7PzgiaDu4H4E/+cN0PoqaUj99WT3ANltsPnfDV0AjU42/m3WdP6a+GsD53ANA
lpc_rms=-36.72
pitch_keycenter=E6
sample=Piccolo_fall_PP_E5.opus
</region>

<region>
hikey=E7
hivel=127
lokey=D#7
lovel=0
lpc=2RyMQfyx5MFedJ9BUJjswCW//0BkfRm/eKiGv/YjqD/12Ow/5UkEwVUsYUE+lbrAWNTVP4uA2z8GGgfABj5fP30mdUBS+xDASeY/wGmzB0GD+pPAJJpMQGe2mcBqe1xA
lpc_rms=-24.18
pitch_keycenter=E7
sample=Piccolo_fall_PP_E6.opus
</region>

<region>
hikey=F#5
hivel=127
lokey=F5
lovel=0
lpc=BssVQXdFecF4nUhBECEgwRNbNEFoLQDB11LBQGjFjcCVmClAm3XBv0+NgT/Q0mA/oUucP0hDq7+UffE+BYE/v/8Ypj+w8fy+UluoPzfrpD7JhRA+hYaAvtJtBsCl/VlA
lpc_rms=-41.22
pitch_keycenter=F#5
sample=Piccolo_fall_PP_F#4.opus
</region>

<region>
hikey=F#6
hivel=127
lokey=F6
lovel=0
lpc=cRg+QZCgnMHleVRBi8f0wLBK+kAsIKjAUEZLQFH3n7/n3S0/AGPZP4trAMBs/OM/+p83Pivq2j/KeuW/wqW1vzDcZr8aNIBAguxDPxGecb9ClIO/4PsrP2ns5T6U00o+
lpc_rms=-33.95
pitch_keycenter=F#6
sample=Piccolo_fall_PP_F#5.opus
</region>

<region>
hikey=F#7
hivel=127
lokey=F7
lovel=0
lpc=Pe54QSqku8F24b5BwrSCwSUvh0EZgjTBVUxyQQB9BMEeHDq/v1EIQcOvOsCWOpNAu7BIwIg2oUAw062/APEBQBRl2b+YaPxA9LgFwTqQLkHEgtXATw6TQM+wScCRZjhA
lpc_rms=-13.80
pitch_keycenter=F#7
sample=Piccolo_fall_PP_F#6.opus
</region>

<region>
hikey=G#5
hivel=127
lokey=G5
lovel=0
lpc=skV+QdaW/8GF2AZCw8vBwdTbqEEXUJrBY0eKQTmJOME+pP5ANBWAwJZRj0CZf/6/zDFjvp8uBUA+dVg/6qbdv71IA0C6ima++YtsQO/nncD3AKlAGwMwwDRjCUBxHkY/
lpc_rms=-30.56
pitch_keycenter=G#5
sample=Piccolo_fall_PP_G#4.opus
</region>

<region>
hikey=G#6
hivel=127
lokey=G6
lovel=0
lpc=USsoQdaXb8EyUhZBwh2wwHertkD7HG/AcWtRQCLtx7/ZalNAkcRXwGZdRkCawLa/igRWQIoNPsBsCQzAYHUSQFkVREDfqoi/HLI6PgWrsr6yv1E/FFKLPLT/ab+9j7I/
lpc_rms=-34.00
pitch_keycenter=G#6
sample=Piccolo_fall_PP_G#5.opus
</region>

<region>
hikey=G#7
hivel=127
lokey=G7
lovel=0
lpc=AnsqQbQkcMERrllBTjvIwKCv3EAluk3AqvugQHOK6MCDnhRBc15/wEcKW0DQMou/vfx8PyuzND/dqAXAwSOyQPjvk8DJq4JAJ6wdwI15S0CbCArAMy3QPnGG7z9RUtK/
lpc_rms=-15.14
pitch_keycenter=G#7
sample=Piccolo_fall_PP_G#6.opus
</region>
</group>

<group>
ampeg_release=0.25
group_label=Sustain_64-127
lpc_hicc1=127
lpc_locc1=64

<region>
hikey=A#5
hivel=127
lokey=A5
lovel=0
lpc=bOlZQVYsycEhPc5BjsKewePtiEFp71HBrU4IQZGEc8DEqrs/EcsIQGxsU8BqQA9Aom0XP6Ks8D6azrO/hakIP0bxT0Af4IbAA32rQKNTvsDBnNRAHIWawMeOoECY9YHA
lpc_rms=-24.43
pitch_keycenter=A#5
sample=Piccolo_fall_FF_A#4.opus
</region>

<region>
hikey=A#6
hivel=127
lokey=A6
lovel=0
lpc=XYSHQZJ42MHl4r9BVVOFwa5IWkGVnh7B5j1IQfiSUcCu3SnAkQTpQBswqsDrahBBt8g4wV8DWkCy2SxBTQU/wbLpQEGHVQXBed8VQbflN8HRwwNBW1W4v/Yebb9UB7c/
lpc_rms=-20.82
pitch_keycenter=A#6
sample=Piccolo_fall_FF_A#5.opus
</region>

<region>
hikey=C6
hivel=127
lokey=B5
lovel=0
lpc=u5tAQdIgr8FBAZ9BiTVMwb4RA0ETY5DAzPw3QF+8ML+8cu0+fAwJvdn7nj8L1mC/SJUKQDBLCMCllO8/7vs3PxpLcb8Fmzk/Sp0OPxldDjzp/5g/EcEhwD+Jqb+0BzFA
lpc_rms=-26.87
pitch_keycenter=C6
sample=Piccolo_fall_FF_C5.opus
</region>

<region>
hikey=C7
hivel=127
lokey=B6
lovel=0
lpc=F9jdQfYIJsIcGvpBVBo1wXeU6ECGgQZAZcdgvV3BUUBnIx1A0LhQvxXAbUHHNcnBr+yUQfWRtEBtX0TBQsptQc5jFcFtTgdBTAYRv8qMQT+3RnZA1Y0+wFktF8Aort5A
lpc_rms=-16.41
pitch_keycenter=C7
sample=Piccolo_fall_FF_C6.opus
</region>

<region>
hikey=D6
hivel=127
lokey=C#6
lovel=0
lpc=phuFQYv54cEig65BWOpSwXxXFkERINjA83uNQJn8gb+BR5o/zJAIP0xxNr74G/Y/aJbBv20aij+FjEI/CKIlvj+qrz40XUM/ZgxTPx4pKcBESoXAgCoBQQ+1D8DewEE/
lpc_rms=-26.36
pitch_keycenter=D6
sample=Piccolo_fall_FF_D5.opus
</region>

<region>
hikey=D7
hivel=127
lokey=C#7
lovel=0
lpc=ggIPQSWNacHF9EVB6TfXwO5wsEBUJBTAgw0iQCwm379bj0xA/08Zvwi1V8DfIrBAp0i4v1kE4jtXL6Y+jlGVP2IuJr8fkao/4GeiPIkdOL4m4xe/uw4/QHxUBcCvWLQ/
lpc_rms=-25.24
pitch_keycenter=D7
sample=Piccolo_fall_FF_D6.opus
</region>

<region>
hivel=127
key=E5
lovel=0
lpc=Ps5WQbTi98H/nA9C2H8BwrVj60GfNsrBK9adQby4WMEPhRFBQcuVwIXYCUAxQwW/hYZuv1LFyz/a0Yu/QphOP64SZD24FZQ/OLVcv7ry5z6OpXi/nVi1P55s1b/A1fc/
lpc_rms=-31.38
sample=Piccolo_fall_FF_E4.opus
</region>

<region>
hikey=E6
hivel=127
lokey=D#6
lovel=0
lpc=W2lJQTdhrMF1541B86EowVwABkF6TcnAPLKMQGOFC8Br3RpAFWmvPjg+Rr/8CBBAE6iNv4yxBECEZoS/n2ULQJoxuLlJox/AjyNXwB9uFEEJGIfAbD6PvVwSgz95sB8/
lpc_rms=-31.25
pitch_keycenter=E6
sample=Piccolo_fall_FF_E5.opus
</region>

<region>
hikey=E7
hivel=127
lokey=D#7
lovel=0
lpc=LCplQUm40MHvNrFBIlg3wUoXIEFObJDA3E2mPyaiEUB+NXfAwZwHP436A0G4oezAkTV3QN317r9sAy9Au7SCv/qeFUAPlyS/Rn+2wCr4LUEejMzAU6JfQASCVsBqF+c/
lpc_rms=-22.40
pitch_keycenter=E7
sample=Piccolo_fall_FF_E6.opus
</region>

<region>
hikey=F#5
hivel=127
lokey=F5
lovel=0
lpc=LArOQEtAScHN+DpBZJb2wDZ04EBEzbvAvBuVQBE5XcCldhdAd3BMv5xVKz/NHR++iQ0nvhowdD+PZSm/F4k1PwOeEr/UHVM/+wicvqE9JD998qi+deqXP2/0FcD4mgZA
lpc_rms=-37.88
pitch_keycenter=F#5
sample=Piccolo_fall_FF_F#4.opus
</region>

<region>
hikey=F#6
hivel=127
lokey=F6
lovel=0
lpc=pax6QfpS08ECDrJB96h6wVPaXkFqLEbBPGYqQby6oMDoq1xAqeOIvxiF3T/6V3M+bCPGvslCJ0CPHXO9xX6WwFp7yr/nog9BlZBnwNfhmz5XUwk+QS0EQP4bB8AjhiY/
lpc_rms=-29.11
pitch_keycenter=F#6
sample=Piccolo_fall_FF_F#5.opus
</region>

<region>
hikey=F#7
hivel=127
lokey=F7
lovel=0
lpc=Pe54QSqku8F24b5BwrSCwSUvh0EZgjTBVUxyQQB9BMEeHDq/v1EIQcOvOsCWOpNAu7BIwIg2oUAw062/APEBQBRl2b+YaPxA9LgFwTqQLkHEgtXATw6TQM+wScCRZjhA
lpc_rms=-13.80
pitch_keycenter=F#7
sample=Piccolo_fall_FF_F#6.opus
</region>

<region>
hikey=G#5
hivel=127
lokey=G5
lovel=0
lpc=ZglxQV4Y+8HdzA5CqXviwXG/vUGPMJ3BY8iOQbTaU8EodiFB/H3KwJLesEA0iizAwEwUQBW7wr89P0hAbd0mwDGTb0AE5SPAZnR2QGhakcBZidVAYxCUwHcMPEByNA8/
lpc_rms=-26.78
pitch_keycenter=G#5
sample=Piccolo_fall_FF_G#4.opus
</region>

<region>
hikey=G#6
hivel=127
lokey=G6
lovel=0
lpc=SmOOQSoy8cG5WcFB7VZKwdu8FEHjTc/AiRXTQOw+hj/8TkbA44MKQP0bDr9ol5tAilSCwHXA6UAV6IbBLWeXQUeXfcDbq2nAKsjBQCXpdsA7+XNAWLWgwOxmikBDd+0+
lpc_rms=-23.16
pitch_keycenter=G#6
sample=Piccolo_fall_FF_G#5.opus
</region>

<region>
hikey=G#7
hivel=127
lokey=G7
lovel=0
lpc=AnsqQbQkcMERrllBTjvIwKCv3EAluk3AqvugQHOK6MCDnhRBc15/wEcKW0DQMou/vfx8PyuzND/dqAXAwSOyQPjvk8DJq4JAJ6wdwI15S0CbCArAMy3QPnGG7z9RUtK/
lpc_rms=-15.14
pitch_keycenter=G#7
sample=Piccolo_fall_FF_G#6.opus
</region>
</group>

<group>
ampeg_attack=0.01
ampeg_release=5.0
group_label=Release_0-63
lpc_hicc1=63
lpc_locc1=0
trigger=release

<region>
hikey=A#5
hivel=127
lokey=A5
lovel=0
lpc=qw6EQTmx5cHmOr1Bn7tdwUS0M0HJ6gHBZa2SQBdtHcCZQptARSzDwEp0ykC+sKvAsuuTQHTUJsDMDe4/AFhxvvyWaj63RpA+8mrHP/AuR8DYnHRAqY00wBH0hEDYXYTA
lpc_rms=-30.76
offset=105600
pitch_keycenter=A#5
sample=Piccolo_fall_PP_A#4.opus
</region>

<region>
hikey=A#6
hivel=127
lokey=A6
lovel=0
lpc=n4d5QWFzycETKJRBP0sQwV3fAkGedgfAVGQKQN9qjsCyy6dAIioPvvVyvj9WM1VAbpIEwQey2z/TfAhBowiowD3T+D8PhIm+q73kv21ewkCCFovAX/0ZQDM3JsCuOwdA
lpc_rms=-28.54
offset=105600
pitch_keycenter=A#6
sample=Piccolo_fall_PP_A#5.opus
</region>

<region>
hikey=C6
hivel=127
lokey=B5
lovel=0
lpc=+qQhQTKog8FNTFBBrQ0mwROFHEH5ofnAwD3lQNdrrcDaNnlAPCQMwFyUHEDLnre/HPiuP4L9y72BTDa/UKvWP6zT2L63ndI+jnY5PAeflj8ZwpS/4P6bP4QnrsDc3J1A
lpc_rms=-38.38
offset=105600
pitch_keycenter=C6
sample=Piccolo_fall_PP_C5.opus
</region>

<region>
hikey=C7
hivel=127
lokey=B6
lovel=0
lpc=4X2eQeL39MHWArFBokouwZL7+UCLgli/xtxSQFm+m8AIFeZAfGV4wIlUKkEh6YXBC7YfQTIhsEDuEf/AHM4QQa75uMDbuWdAKtfDPry7f0AHxIfA4qyXQEI96cAw7fJA
lpc_rms=-26.75
offset=105600
pitch_keycenter=C7
sample=Piccolo_fall_PP_C6.opus
</region>

<region>
hikey=D6
hivel=127
lokey=C#6
lovel=0
lpc=TGfAQdU+F8IJ5cpBBUiKwfnoXkHi7hPBqv84QTSAK8G+wSNBnvHRwIJy2UCnv67An5eIQPPNeMAhjfZABbjIwDnZz0A5LmHAPfyuQN0g/sCOhi/AYtRnQN320EA8UgzA
lpc_rms=-30.34
offset=105600
pitch_keycenter=D6
sample=Piccolo_fall_PP_D5.opus
</region>

<region>
hikey=D7
hivel=127
lokey=C#7
lovel=0
lpc=CTyKQW969cH3bcFBs9I7wYHTEkFCOj2/QaVwwMavfkDTNUK/2+18QMrjJ8G0dz9BBZMBwBirO75NgKC/0NIfv0bpnkAD9dy/DjP7P9Ru0r8bgprAfllFQWgqAMGJ8B1A
lpc_rms=-24.20
offset=105600
pitch_keycenter=D7
sample=Piccolo_fall_PP_D6.opus
</region>

<region>
hivel=127
key=E5
lovel=0
lpc=+8CQQQZoCsKnTRxCJHgYwg3m8EFy1JrBwEddQQx9KsGF2fVAF/GWwJ2KRED8tAA+pTIGQBW9ur6fM3y8cAmDv0g2RD/r7OO/0UgyQIXnPMCKSxtAjFFkv6qD0j8FtJ8/
lpc_rms=-38.66
offset=105600
sample=Piccolo_fall_PP_E4.opus
</region>

<region>
end=178337
hikey=E6
hivel=127
lokey=D#6
lovel=0
lpc=SKgqQWB4k8F2925BINsbwS/eBUFgcJHAI0YBQH+Dmb85XKk/5dcPQHYvDcAJh48/68Y7PzgiaDu4H4E/+cN0PoqaUj99WT3ANltsPnfDV0AjU42/m3WdP6a+GsD53ANA
lpc_rms=-36.72
offset=105600
pitch_keycenter=E6
sample=Piccolo_fall_PP_E5.opus
</region>

<region>
hikey=E7
hivel=127
lokey=D#7
lovel=0
lpc=2RyMQfyx5MFedJ9BUJjswCW//0BkfRm/eKiGv/YjqD/12Ow/5UkEwVUsYUE+lbrAWNTVP4uA2z8GGgfABj5fP30mdUBS+xDASeY/wGmzB0GD+pPAJJpMQGe2mcBqe1xA
lpc_rms=-24.18
offset=105600
pitch_keycenter=E7
sample=Piccolo_fall_PP_E6.opus
</region>

<region>
hikey=F#5
hivel=127
lokey=F5
lovel=0
lpc=BssVQXdFecF4nUhBECEgwRNbNEFoLQDB11LBQGjFjcCVmClAm3XBv0+NgT/Q0mA/oUucP0hDq7+UffE+BYE/v/8Ypj+w8fy+UluoPzfrpD7JhRA+hYaAvtJtBsCl/VlA
lpc_rms=-41.22
offset=105600
pitch_keycenter=F#5
sample=Piccolo_fall_PP_F#4.opus
</region>

<region>
hikey=F#6
hivel=127
lokey=F6
lovel=0
lpc=cRg+QZCgnMHleVRBi8f0wLBK+kAsIKjAUEZLQFH3n7/n3S0/AGPZP4trAMBs/OM/+p83Pivq2j/KeuW/wqW1vzDcZr8aNIBAguxDPxGecb9ClIO/4PsrP2ns5T6U00o+
lpc_rms=-33.95
offset=105600
pitch_keycenter=F#6
sample=Piccolo_fall_PP_F#5.opus
</region>

<region>
end=149346
hikey=F#7
hivel=127
lokey=F7
lovel=0
lpc=Pe54QSqku8F24b5BwrSCwSUvh0EZgjTBVUxyQQB9BMEeHDq/v1EIQcOvOsCWOpNAu7BIwIg2oUAw062/APEBQBRl2b+YaPxA9LgFwTqQLkHEgtXATw6TQM+wScCRZjhA
lpc_rms=-13.80
offset=105600
pitch_keycenter=F#7
sample=Piccolo_fall_PP_F#6.opus
</region>

<region>
hikey=G#5
hivel=127
lokey=G5
lovel=0
lpc=skV+QdaW/8GF2AZCw8vBwdTbqEEXUJrBY0eKQTmJOME+pP5ANBWAwJZRj0CZf/6/zDFjvp8uBUA+dVg/6qbdv71IA0C6ima++YtsQO/nncD3AKlAGwMwwDRjCUBxHkY/
lpc_rms=-30.56
offset=105600
pitch_keycenter=G#5
sample=Piccolo_fall_PP_G#4.opus
</region>

<region>
hikey=G#6
hivel=127
lokey=G6
lovel=0
lpc=USsoQdaXb8EyUhZBwh2wwHertkD7HG/AcWtRQCLtx7/ZalNAkcRXwGZdRkCawLa/igRWQIoNPsBsCQzAYHUSQFkVREDfqoi/HLI6PgWrsr6yv1E/FFKLPLT/ab+9j7I/
lpc_rms=-34.00
offset=105600
pitch_keycenter=G#6
sample=Piccolo_fall_PP_G#5.opus
</region>

<region>
hikey=G#7
hivel=127
lokey=G7
lovel=0
lpc=AnsqQbQkcMERrllBTjvIwKCv3EAluk3AqvugQHOK6MCDnhRBc15/wEcKW0DQMou/vfx8PyuzND/dqAXAwSOyQPjvk8DJq4JAJ6wdwI15S0CbCArAMy3QPnGG7z9RUtK/
lpc_rms=-15.14
offset=105600
pitch_keycenter=G#7
sample=Piccolo_fall_PP_G#6.opus
</region>
</group>

<group>
ampeg_attack=0.01
ampeg_release=5.0
group_label=Release_64-127
lpc_hicc1=127
lpc_locc1=64
trigger=release

<region>
hikey=A#5
hivel=127
lokey=A5
lovel=0
lpc=bOlZQVYsycEhPc5BjsKewePtiEFp71HBrU4IQZGEc8DEqrs/EcsIQGxsU8BqQA9Aom0XP6Ks8D6azrO/hakIP0bxT0Af4IbAA32rQKNTvsDBnNRAHIWawMeOoECY9YHA
lpc_rms=-24.43
offset=105600
pitch_keycenter=A#5
sample=Piccolo_fall_FF_A#4.opus
</region>

<region>
hikey=A#6
hivel=127
lokey=A6
lovel=0
lpc=XYSHQZJ42MHl4r9BVVOFwa5IWkGVnh7B5j1IQfiSUcCu3SnAkQTpQBswqsDrahBBt8g4wV8DWkCy2SxBTQU/wbLpQEGHVQXBed8VQbflN8HRwwNBW1W4v/Yebb9UB7c/
lpc_rms=-20.82
offset=105600
pitch_keycenter=A#6
sample=Piccolo_fall_FF_A#5.opus
</region>

<region>
hikey=C6
hivel=127
lokey=B5
lovel=0
lpc=u5tAQdIgr8FBAZ9BiTVMwb4RA0ETY5DAzPw3QF+8ML+8cu0+fAwJvdn7nj8L1mC/SJUKQDBLCMCllO8/7vs3PxpLcb8Fmzk/Sp0OPxldDjzp/5g/EcEhwD+Jqb+0BzFA
lpc_rms=-26.87
offset=105600
pitch_keycenter=C6
sample=Piccolo_fall_FF_C5.opus
</region>

<region>
hikey=C7
hivel=127
lokey=B6
lovel=0
lpc=F9jdQfYIJsIcGvpBVBo1wXeU6ECGgQZAZcdgvV3BUUBnIx1A0LhQvxXAbUHHNcnBr+yUQfWRtEBtX0TBQsptQc5jFcFtTgdBTAYRv8qMQT+3RnZA1Y0+wFktF8Aort5A
lpc_rms=-16.41
offset=105600
pitch_keycenter=C7
sample=Piccolo_fall_FF_C6.opus
</region>

<region>
hikey=D6
hivel=127
lokey=C#6
lovel=0
lpc=phuFQYv54cEig65BWOpSwXxXFkERINjA83uNQJn8gb+BR5o/zJAIP0xxNr74G/Y/aJbBv20aij+FjEI/CKIlvj+qrz40XUM/ZgxTPx4pKcBESoXAgCoBQQ+1D8DewEE/
lpc_rms=-26.36
offset=105600
pitch_keycenter=D6
sample=Piccolo_fall_FF_D5.opus
</region>

<region>
hikey=D7
hivel=127
lokey=C#7
lovel=0
lpc=ggIPQSWNacHF9EVB6TfXwO5wsEBUJBTAgw0iQCwm379bj0xA/08Zvwi1V8DfIrBAp0i4v1kE4jtXL6Y+jlGVP2IuJr8fkao/4GeiPIkdOL4m4xe/uw4/QHxUBcCvWLQ/
lpc_rms=-25.24
offset=105600
pitch_keycenter=D7
sample=Piccolo_fall_FF_D6.opus
</region>

<region>
hivel=127
key=E5
lovel=0
lpc=Ps5WQbTi98H/nA9C2H8BwrVj60GfNsrBK9adQby4WMEPhRFBQcuVwIXYCUAxQwW/hYZuv1LFyz/a0Yu/QphOP64SZD24FZQ/OLVcv7ry5z6OpXi/nVi1P55s1b/A1fc/
lpc_rms=-31.38
offset=105600
sample=Piccolo_fall_FF_E4.opus
</region>

<region>
end=163888
hikey=E6
hivel=127
lokey=D#6
lovel=0
lpc=W2lJQTdhrMF1541B86EowVwABkF6TcnAPLKMQGOFC8Br3RpAFWmvPjg+Rr/8CBBAE6iNv4yxBECEZoS/n2ULQJoxuLlJox/AjyNXwB9uFEEJGIfAbD6PvVwSgz95sB8/
lpc_rms=-31.25
offset=105600
pitch_keycenter=E6
sample=Piccolo_fall_FF_E5.opus
</region>

<region>
hikey=E7
hivel=127
lokey=D#7
lovel=0
lpc=LCplQUm40MHvNrFBIlg3wUoXIEFObJDA3E2mPyaiEUB+NXfAwZwHP436A0G4oezAkTV3QN317r9sAy9Au7SCv/qeFUAPlyS/Rn+2wCr4LUEejMzAU6JfQASCVsBqF+c/
lpc_rms=-22.40
offset=105600
pitch_keycenter=E7
sample=Piccolo_fall_FF_E6.opus
</region>

<region>
end=169452
hikey=F#5
hivel=127
lokey=F5
lovel=0
lpc=LArOQEtAScHN+DpBZJb2wDZ04EBEzbvAvBuVQBE5XcCldhdAd3BMv5xVKz/NHR++iQ0nvhowdD+PZSm/F4k1PwOeEr/UHVM/+wicvqE9JD998qi+deqXP2/0FcD4mgZA
lpc_rms=-37.88
offset=105600
pitch_keycenter=F#5
sample=Piccolo_fall_FF_F#4.opus
</region>

<region>
end=174962
hikey=F#6
hivel=127
lokey=F6
lovel=0
lpc=pax6QfpS08ECDrJB96h6wVPaXkFqLEbBPGYqQby6oMDoq1xAqeOIvxiF3T/6V3M+bCPGvslCJ0CPHXO9xX6WwFp7yr/nog9BlZBnwNfhmz5XUwk+QS0EQP4bB8AjhiY/
lpc_rms=-29.11
offset=105600
pitch_keycenter=F#6
sample=Piccolo_fall_FF_F#5.opus
</region>

<region>
end=153625
hikey=F#7
hivel=127
lokey=F7
lovel=0
lpc=Pe54QSqku8F24b5BwrSCwSUvh0EZgjTBVUxyQQB9BMEeHDq/v1EIQcOvOsCWOpNAu7BIwIg2oUAw062/APEBQBRl2b+YaPxA9LgFwTqQLkHEgtXATw6TQM+wScCRZjhA
lpc_rms=-13.80
offset=105600
pitch_keycenter=F#7
sample=Piccolo_fall_FF_F#6.opus
</region>

<region>
hikey=G#5
hivel=127
lokey=G5
lovel=0
lpc=ZglxQV4Y+8HdzA5CqXviwXG/vUGPMJ3BY8iOQbTaU8EodiFB/H3KwJLesEA0iizAwEwUQBW7wr89P0hAbd0mwDGTb0AE5SPAZnR2QGhakcBZidVAYxCUwHcMPEByNA8/
lpc_rms=-26.78
offset=105600
pitch_keycenter=G#5
sample=Piccolo_fall_FF_G#4.opus
</region>

<region>
hikey=G#6
hivel=127
lokey=G6
lovel=0
lpc=SmOOQSoy8cG5WcFB7VZKwdu8FEHjTc/AiRXTQOw+hj/8TkbA44MKQP0bDr9ol5tAilSCwHXA6UAV6IbBLWeXQUeXfcDbq2nAKsjBQCXpdsA7+XNAWLWgwOxmikBDd+0+
lpc_rms=-23.16
offset=105600
pitch_keycenter=G#6
sample=Piccolo_fall_FF_G#5.opus
</region>

<region>
hikey=G#7
hivel=127
lokey=G7
lovel=0
lpc=AnsqQbQkcMERrllBTjvIwKCv3EAluk3AqvugQHOK6MCDnhRBc15/wEcKW0DQMou/vfx8PyuzND/dqAXAwSOyQPjvk8DJq4JAJ6wdwI15S0CbCArAMy3QPnGG7z9RUtK/
lpc_rms=-15.14
offset=105600
pitch_keycenter=G#7
sample=Piccolo_fall_FF_G#6.opus
</region>
</group>